<svg width="16" height="16" viewBox="0 0 16 16" fill="none" xmlns="http://www.w3.org/2000/svg">
<path fill-rule="evenodd" clip-rule="evenodd" d="M4.66683 10.6008V12.6633L8.04164 10.6691L8.39438 10.6633C9.79697 10.6404 11.0592 10.4992 12.0031 10.3555C12.5987 10.2649 13.0126 9.8492 13.1025 9.32721C13.2273 8.60317 13.3335 7.68586 13.3335 6.66658C13.3335 5.64731 13.2273 4.73 13.1025 4.00596C13.0126 3.48397 12.5987 3.06826 12.0031 2.97763C10.9708 2.82056 9.55905 2.66659 8.00016 2.66659C6.44127 2.66659 5.02955 2.82056 3.99724 2.97763C3.40159 3.06826 2.9877 3.48397 2.89778 4.00596C2.77307 4.73 2.66683 5.64731 2.66683 6.66658C2.66683 7.68586 2.77307 8.60317 2.89778 9.32721C2.97586 9.78049 3.29252 10.1438 3.75422 10.2973L4.66683 10.6008ZM1.5838 3.77963C1.77726 2.6565 2.66998 1.8309 3.79668 1.65947C4.87623 1.49521 6.35722 1.33325 8.00016 1.33325C9.6431 1.33325 11.1241 1.49521 12.2036 1.65947C13.3303 1.8309 14.2231 2.6565 14.4165 3.77963C14.5514 4.5624 14.6668 5.55675 14.6668 6.66658C14.6668 7.77642 14.5514 8.77077 14.4165 9.55354C14.2231 10.6767 13.3303 11.5023 12.2036 11.6737C11.216 11.824 9.89243 11.9723 8.41621 11.9965L4.33931 14.4056C3.8949 14.6682 3.3335 14.3478 3.3335 13.8316V11.5626C2.4312 11.2625 1.74987 10.5176 1.5838 9.55354C1.44897 8.77077 1.3335 7.77642 1.3335 6.66658C1.3335 5.55675 1.44897 4.5624 1.5838 3.77963Z" fill="#585858"/>
<path fill-rule="evenodd" clip-rule="evenodd" d="M4.66667 4.66675C4.29848 4.66675 4 4.96522 4 5.33341C4 5.7016 4.29848 6.00008 4.66667 6.00008H11.3333C11.7015 6.00008 12 5.7016 12 5.33341C12 4.96522 11.7015 4.66675 11.3333 4.66675H4.66667ZM4.66667 7.33341C4.29848 7.33341 4 7.63189 4 8.00008C4 8.36827 4.29848 8.66675 4.66667 8.66675H7.33333C7.70152 8.66675 8 8.36827 8 8.00008C8 7.63189 7.70152 7.33341 7.33333 7.33341H4.66667Z" fill="#585858"/>
</svg>
