<svg width="108" height="42" viewBox="0 0 108 42" fill="none" xmlns="http://www.w3.org/2000/svg">
<path d="M34.1027 11.176V11.1149C33.9814 9.42461 33.0315 7.91761 31.556 7.10301L22.4608 2.03217C21.046 1.23794 19.3483 1.19721 17.893 1.90998L4.71514 8.42673C3.0578 9.24132 2.0068 10.8909 1.94616 12.7441L1.42067 30.38C1.36003 32.4573 2.55251 34.3105 4.43218 35.125L17.7718 40.8068C18.3983 41.0716 19.0451 41.1938 19.6919 41.1938C20.4599 41.1938 21.2077 41.0105 21.8949 40.6643L21.9556 40.6439L23.815 39.3202L23.9363 39.3813L24.0576 39.1369L30.505 34.5752C32.2432 33.6588 33.274 31.8259 33.1729 29.8506L34.0825 11.1963L34.1027 11.176ZM21.5917 3.64099L30.6869 8.71184C30.9699 8.87476 31.2326 9.0784 31.4348 9.30242L24.482 11.1556C23.1682 7.81578 22.1172 5.14799 21.5311 3.62063C21.5513 3.62063 21.5715 3.64099 21.5917 3.64099ZM21.8141 35.6953L24.866 29.8506L25.5532 30.2171L25.2298 30.8892L21.5311 37.9761L21.8141 35.6953ZM21.9556 34.5345L22.2587 32.2332L23.7948 29.2803L24.5022 29.6469L21.9556 34.5345ZM22.4002 31.0724L22.7034 28.7101L23.431 29.097L22.4002 31.0724ZM7.38306 27.142L3.25991 29.7895L3.28012 28.9341L7.18094 26.4293L7.38306 27.142ZM3.68435 15.3711L4.12901 15.086L4.33112 15.7988L3.66414 16.2265L3.68435 15.3711ZM3.64393 16.7356L4.43218 16.2265L4.63429 16.9392L3.62372 17.5909L3.64393 16.7356ZM3.60351 18.0797L4.73535 17.3465L4.93747 18.0593L3.5833 18.935L3.60351 18.0797ZM3.56309 19.4441L5.03853 18.487L5.24064 19.1997L3.54287 20.2791L3.56309 19.4441ZM3.52266 20.7882L5.36191 19.6274L5.56402 20.3402L3.52266 21.6435V20.7882ZM3.48224 22.1526L5.66508 20.7475L5.8672 21.4602L3.46203 23.008L3.48224 22.1526ZM3.44182 23.4967L5.96825 21.8879L6.17037 22.6007L3.4216 24.352L3.44182 23.4967ZM3.40139 24.8612L6.27143 23.0283L6.47354 23.7411L3.38118 25.7165L3.40139 24.8612ZM7.07989 26.022L3.30034 28.425L3.32055 27.5697L6.87777 25.2888L7.07989 26.022ZM6.77671 24.8815L3.34076 27.0809L3.36097 26.2256L6.5746 24.1688L6.77671 24.8815ZM5.22043 12.1535L22.8044 13.131L21.3088 26.5311L9.92971 27.5493H9.86907C9.72759 27.5697 9.5659 27.6104 9.42442 27.6511L5.22043 12.1535ZM10.7786 10.6261L14.255 5.7793L16.1953 4.82215L11.9913 10.6872L10.7786 10.6261ZM10.2935 10.5854L9.08083 10.5243L11.5264 7.12338L13.4667 6.16623L10.2935 10.5854ZM8.59575 10.5039L7.38306 10.4428L8.79786 8.48782L10.7382 7.53068L8.59575 10.5039ZM19.4898 3.37625C19.5504 3.53917 19.6312 3.74281 19.7121 3.96683C19.7727 4.12975 19.8536 4.31303 19.9142 4.51668L15.3666 10.8705L14.1539 10.8094L19.4898 3.37625ZM20.7631 6.63462C20.9046 6.98083 21.046 7.34739 21.1875 7.71396L18.7621 11.0538L17.5494 10.9927L20.7227 6.55316C20.7429 6.57353 20.7429 6.61426 20.7631 6.63462ZM22.5821 11.2778L20.945 11.1963L21.9758 9.75044C22.1981 10.3003 22.4002 10.8298 22.5821 11.2778ZM20.5812 11.1556L19.2472 11.0742L21.3492 8.14162C21.4907 8.52855 21.6524 8.91549 21.7939 9.28205L20.5003 11.0945L20.5812 11.1556ZM17.0644 10.9723L15.8517 10.9112L20.0961 4.98507C20.2376 5.33127 20.3791 5.7182 20.5407 6.1255L17.0644 10.9723ZM18.7015 3.5799C18.7621 3.53917 18.843 3.5188 18.9036 3.49844L13.6688 10.7891L12.4561 10.728L16.9633 4.43522L18.7015 3.5799ZM5.50339 10.0966L8.00962 8.85439L6.89798 10.4021L5.13958 10.3003C5.26085 10.2188 5.38212 10.1577 5.50339 10.0966ZM4.02795 14.6787L3.70457 14.8824L3.74499 13.6198L4.02795 14.6787ZM3.2397 30.4411V30.2782L7.48412 27.5697L7.70644 28.4046L3.30034 31.1335C3.25991 30.9095 3.2397 30.6651 3.2397 30.4411ZM5.13958 33.4348C4.75556 33.2718 4.41197 33.0478 4.12901 32.7627L8.59575 30.0135L16.7814 38.3834L5.13958 33.4348ZM19.5908 38.6685L10.4956 29.3211L20.9046 28.3843L19.5908 38.6685ZM21.612 38.6685L25.5734 31.0724L25.8968 30.4004L26.6244 30.7873L23.047 37.6503L21.612 38.6685ZM27.7158 31.3372L25.2096 36.1229L23.7746 37.1412L26.9882 30.9706L27.7158 31.3372ZM28.0594 31.5408L28.7668 31.9074L28.5849 32.2536L27.352 34.6159L25.917 35.6342L28.0594 31.5408ZM29.6764 33.0071L29.6157 33.0275L28.0999 34.1068L28.9689 32.4573L29.1509 32.111L30.2221 32.6813C30.0402 32.7831 29.8583 32.9053 29.6764 33.0071ZM31.3943 29.8506V29.9116V29.9727C31.4145 30.38 31.3741 30.767 31.2528 31.1539L23.0874 26.8773L24.6235 13.1717C24.6437 13.1106 24.6639 13.0699 24.6639 13.0088L32.2634 10.9927C32.2836 11.0742 32.2836 11.1353 32.2836 11.2167L31.3943 29.8506Z" fill="#00E69A"/>
<path d="M50.3391 24.2796L52.2416 24.9723C51.7761 25.6242 51.432 26.0521 51.2296 26.2558C50.1974 27.2949 48.9831 27.8042 47.5259 27.8042C46.0889 27.8042 44.8543 27.2949 43.8424 26.2558C42.8102 25.2168 42.3042 23.9944 42.3042 22.5275C42.3042 21.081 42.8102 19.8382 43.8424 18.7991C44.8746 17.7601 46.0889 17.2507 47.5259 17.2507C48.9629 17.2507 50.1974 17.7601 51.2296 18.7991C51.432 19.0029 51.7761 19.4307 52.2416 20.0623L50.3391 20.755C50.0962 20.4494 49.9343 20.266 49.8331 20.1641C49.2057 19.5326 48.4164 19.2066 47.5259 19.2066C46.6354 19.2066 45.846 19.5326 45.2186 20.1641C44.571 20.8161 44.2674 21.5903 44.2674 22.5071C44.2674 23.4035 44.5912 24.1981 45.2186 24.8297C45.8663 25.4816 46.6354 25.7872 47.5259 25.7872C48.4366 25.7872 49.2057 25.4613 49.8534 24.8297C49.9141 24.7482 50.076 24.5648 50.3391 24.2796Z" fill="black"/>
<path d="M56.8963 19.3085C57.6047 18.351 58.475 17.8416 59.5072 17.7805V19.7771C58.8191 19.8179 58.2726 20.042 57.8476 20.4494C57.2202 21.0607 56.9166 21.7941 56.8761 22.6498V27.5394H54.9736V18.025H56.8761V19.3085H56.8963Z" fill="black"/>
<path d="M61.7942 31.0845L62.2193 29.2916C62.4621 29.3731 62.7252 29.4139 62.9681 29.4139C64.1015 29.4139 64.7491 28.8027 65.0932 27.947L65.2956 27.3969L61.2275 18.3103H63.555L65.3361 22.6702C65.6801 23.5259 66.004 24.4631 66.3278 25.4003H66.4087C66.6921 24.5039 67.0159 23.5463 67.2993 22.6702L68.8577 18.3103H71.0435L67.279 27.8655C66.4695 30.0047 65.3563 31.2679 63.13 31.2679C62.624 31.2679 62.1585 31.1864 61.7942 31.0845Z" fill="black"/>
<path d="M75.5573 26.3577V30.738H73.6548V18.0249H75.5573V18.8806C76.468 17.8008 77.5407 17.2507 78.755 17.2507C80.192 17.2507 81.4266 17.7601 82.4588 18.7991C83.4707 19.8178 83.997 21.0606 83.997 22.5275C83.997 23.974 83.491 25.2168 82.4588 26.2558C81.4468 27.2949 80.2122 27.8042 78.755 27.8042C77.5407 27.7838 76.4883 27.3153 75.5573 26.3577ZM75.5573 21.7737V23.2609C75.6787 23.8518 75.962 24.3815 76.4478 24.8501C77.0752 25.4816 77.8645 25.8076 78.755 25.8076C79.6658 25.8076 80.4349 25.4816 81.0825 24.8501C81.7302 24.1981 82.0338 23.4239 82.0338 22.5071C82.0338 21.6107 81.7099 20.8161 81.0825 20.1845C80.4349 19.5326 79.6658 19.2066 78.755 19.2066C77.8443 19.2066 77.0752 19.5326 76.4478 20.1845C75.9823 20.6531 75.6787 21.1828 75.5573 21.7737Z" fill="black"/>
<path d="M92.6594 25.9708L92.4368 27.6006C92.376 27.6006 92.2344 27.621 92.0522 27.621C91.8701 27.621 91.6677 27.621 91.4248 27.621C90.0688 27.621 89.0366 27.3562 88.3282 26.8061C87.6199 26.256 87.2758 25.4411 87.2758 24.3409C87.2758 23.6482 87.2758 22.9555 87.296 22.2628C87.296 21.5701 87.3163 20.7551 87.3163 19.818H85.7983V18.2492H87.3972V15.9062H89.4616V18.2288H92.6392V19.7976H89.4616C89.4616 19.9402 89.4616 20.2458 89.4616 20.7551C89.4616 21.2645 89.4616 21.6516 89.4616 21.9368C89.4616 22.1609 89.4616 22.4461 89.4616 22.7721C89.4616 23.0981 89.4616 23.4648 89.4616 23.8723C89.4616 24.6057 89.664 25.1355 90.0485 25.4614C90.4331 25.8078 91.1212 25.9708 92.0522 25.9708C92.1534 25.9708 92.2748 25.9708 92.4165 25.9708C92.538 25.9708 92.6189 25.9708 92.6594 25.9708Z" fill="black"/>
<path d="M97.1117 14.5004C97.3748 14.7652 97.5165 15.0708 97.5165 15.4579C97.5165 15.8247 97.3748 16.1506 97.1117 16.4155C96.8486 16.6803 96.5248 16.8026 96.1605 16.8026C95.7962 16.8026 95.4926 16.6803 95.2295 16.4155C94.9664 16.1506 94.8247 15.845 94.8247 15.4579C94.8247 15.0912 94.9461 14.7652 95.2295 14.5004C95.4926 14.2355 95.7962 14.1133 96.1605 14.1133C96.5248 14.1133 96.8486 14.2355 97.1117 14.5004ZM97.132 18.025V27.5394H95.2295V18.025H97.132Z" fill="black"/>
<path d="M107.535 18.0251L105.045 22.3647L108 27.5396H105.814L103.973 24.3409L102.131 27.5396H99.9248L102.9 22.3647L100.39 18.0251H102.576L103.952 20.4088L105.329 18.0251H107.535Z" fill="black"/>
</svg>
